<?xml version="1.0" encoding="UTF-8" standalone="no"?>
<svg
   id="Capa_2"
   data-name="Capa 2"
   viewBox="0 0 822.30163 376.97283"
   version="1.1"
   sodipodi:docname="Recurso 36.svg"
   width="822.30164"
   height="376.97284"
   xmlns:inkscape="http://www.inkscape.org/namespaces/inkscape"
   xmlns:sodipodi="http://sodipodi.sourceforge.net/DTD/sodipodi-0.dtd"
   xmlns="http://www.w3.org/2000/svg"
   xmlns:svg="http://www.w3.org/2000/svg">
  <sodipodi:namedview
     id="namedview7"
     pagecolor="#ffffff"
     bordercolor="#000000"
     borderopacity="0.25"
     inkscape:showpageshadow="2"
     inkscape:pageopacity="0.0"
     inkscape:pagecheckerboard="0"
     inkscape:deskcolor="#d1d1d1"
     inkscape:export-bgcolor="#ffffff00" />
  <defs
     id="defs1">
    <style
       id="style1">
      .cls-1 {
        stroke-width: 0px;
      }

      .cls-1, .cls-2 {
        fill: #030811;
      }

      .cls-3 {
        letter-spacing: 1.15em;
      }

      .cls-4 {
        letter-spacing: 1.2em;
      }

      .cls-2 {
        font-family: sans-serif, geomanist;
        font-size: 70px;
      }

      .cls-5 {
        letter-spacing: 1.2em;
      }

      .cls-6 {
        letter-spacing: 1.18em;
      }
    </style>
  </defs>
  <g
     id="Capa_1-2"
     data-name="Capa 1"
     transform="translate(-58.721711)">
    <g
       id="g7">
      <text
         class="cls-2"
         transform="translate(207.18,376.05)"
         id="text4"
         style="fill:#bac0c0;fill-opacity:1"><tspan
           class="cls-4"
           x="0"
           y="0"
           id="tspan1"
           style="fill:#bac0c0;fill-opacity:1">S</tspan><tspan
           class="cls-3"
           x="119.42"
           y="0"
           id="tspan2"
           style="fill:#bac0c0;fill-opacity:1">P</tspan><tspan
           class="cls-6"
           x="235.48"
           y="0"
           id="tspan3"
           style="fill:#bac0c0;fill-opacity:1">A</tspan><tspan
           class="cls-5"
           x="362.25"
           y="0"
           id="tspan4"
           style="fill:#bac0c0;fill-opacity:1">CE</tspan></text>
      <g
         id="g6"
         inkscape:export-filename="..\iwiespace\src\assets\iwie-space-logo.svg"
         inkscape:export-xdpi="96"
         inkscape:export-ydpi="96">
        <path
           class="cls-1"
           d="m 142.28,20.29 c 0.08,-1.19 0.48,-9.1 -5.62,-15.03 C 132.17,0.89 126.84,0.2 125.17,0.05 117.22,0.03 109.27,0.02 101.31,0 c -2.75,13.49 -5.5,26.99 -8.25,40.48 15.06,-0.01 30.13,-0.03 45.19,-0.04 1.34,-6.72 2.68,-13.43 4.02,-20.15 z"
           id="path4"
           style="fill:#bac0c0;fill-opacity:1" />
        <path
           class="cls-1"
           d="m 665.49,20.29 c 0.08,-1.19 0.48,-9.1 -5.62,-15.03 C 655.38,0.9 650.05,0.2 648.38,0.05 640.43,0.03 632.48,0.02 624.52,0 c -2.75,13.49 -5.5,26.99 -8.25,40.48 15.06,-0.01 30.13,-0.03 45.19,-0.04 1.34,-6.72 2.68,-13.43 4.02,-20.15 z"
           id="path5"
           style="fill:#bac0c0;fill-opacity:1" />
        <path
           class="cls-1"
           d="m 714.45,202.82 c -0.63,2.15 -6.65,9.32 -8.47,10.5 -20.27,13.11 -34.34,16.78 -54.19,16.78 -17.86,0 -26.98,-12.92 -23.18,-30.78 l 25.1,-122.59 c 1.42,-7.2 2.84,-14.4 4.26,-21.6 0.04,-0.2 -0.11,-0.39 -0.32,-0.39 L 635.6,54.53 h -22.56 c -3.1,15.12 -6.2,30.24 -9.29,45.36 -6.4,31.24 -12.8,62.48 -19.21,93.72 v 0 c -2.23,10.93 -9.54,20.16 -19.68,24.82 -19.59,9.01 -35.05,11.15 -44.4,11.66 -12.41,0.68 -18.59,-1.28 -22.26,-5.62 -4.53,-5.37 -3.99,-14.37 -2.75,-20.88 0,-0.01 0,-0.02 0,-0.03 0.8,-2.59 1.06,-4.86 1.62,-7.37 0,-0.02 0.14,-0.47 0.15,-0.48 0,0 0.18,-0.67 0.18,-0.68 0.14,-0.61 0.15,-0.6 0.27,-1.21 6.23,-33.36 5.32,-26.03 18.48,-95.13 5.42,-25.3 5.54,-32.32 0.52,-37.9 -5.57,-6.18 -14.87,-6.64 -20.97,-6.26 h -0.02 c -4.64,-0.02 -9.27,-0.03 -13.91,-0.05 -0.16,0 -0.29,0.1 -0.32,0.25 -0.58,2.83 -1.74,8.51 -2.28,11.16 -7.76,37.96 -15.41,75.95 -22.96,113.96 -0.15,0.77 -0.33,2.02 -0.64,3.73 -3.1,16.91 -5.22,28.41 -11.41,35.94 -10.55,12.82 -30.95,11.68 -43.62,10.96 -9.61,-0.54 -17.72,-1.23 -23.79,-7.38 -8.74,-8.85 -7.35,-21.69 -7.09,-23.83 0.9,-6.48 1.8,-12.95 2.7,-19.43 6.53,-34.32 13.06,-68.65 19.6,-102.97 0.3,-2.02 1.19,-9.67 -3.68,-15.48 -4.91,-5.86 -12.91,-6.85 -16.38,-6.86 -3.22,0 -6.44,-0.02 -9.66,-0.03 -3.08,0 -6.17,-0.02 -9.25,-0.03 -0.14,0 -0.26,0.09 -0.29,0.23 -0.45,2.18 -3.82,18.59 -3.88,18.9 -10.89,53.05 -21.24,103.5 -21.78,106.1 -0.16,0.96 -0.42,2.36 -0.82,4.02 -4.27,17.63 -15.78,28.66 -17.82,30.57 -16.69,15.65 -37.42,17.04 -49.03,15.79 -6.25,-0.67 -12.94,-1.49 -17.97,-6.97 -5.05,-5.5 -6.89,-13.9 -4.81,-23.81 L 261.26,76.71 c 2.31,-11.46 -6.3,-22.2 -17.8,-22.2 h -21.91 c -0.16,0 -0.29,0.11 -0.32,0.26 l -9.08,45.1 -18.88,93.72 v 0 c -2.3,10.76 -9.48,19.81 -19.38,24.6 -15.16,7.33 -30.59,11.88 -45.3,11.88 -17.86,0 -26.98,-12.92 -23.18,-30.78 L 130.51,76.7 c 1.42,-7.2 2.84,-14.4 4.26,-21.6 0.04,-0.2 -0.11,-0.39 -0.32,-0.39 L 112.4,54.5 H 89.84 c -3.1,15.12 -6.2,30.24 -9.29,45.36 -6.4,31.24 -12.8,62.48 -19.21,93.72 -5.38,26.24 -2.58,44.39 9.43,57.63 12.43,13.7 31.47,14.75 43.14,15.4 40.88,2.26 72.23,-20.94 84.5,-31.24 0.15,-0.12 0.36,-0.08 0.45,0.09 12,20.91 34.69,26.27 45.79,28.89 44.31,10.47 82.44,-16.82 90.77,-23.11 0.13,-0.1 0.29,-0.08 0.39,0.05 2.68,3.19 6.72,7.44 12.33,11.5 16.71,12.11 34.45,13.24 44.73,13.76 7.48,0.38 41.77,2.07 69.05,-16.16 0.24,0.27 0.47,0.55 0.72,0.82 12.71,13.87 31.25,14.83 43.46,15.46 37.42,1.93 66.4,-18.15 79.21,-28.6 0.16,-0.13 0.39,-0.06 0.47,0.13 1.96,4.81 4.68,9.13 8.2,13.01 12.43,13.7 31.47,14.75 43.14,15.4 36.89,2.04 66.02,-16.66 80.37,-27.89 0.16,-0.12 0.38,-0.07 0.46,0.12 1.3,2.95 3.84,7.92 7.72,12.41 8.31,9.61 27.13,14.77 43.36,15.45 40.4,1.69 74.05,-24.03 84.71,-32.82 h 0.02 c 8.27,-7.64 9.51,-17.96 5.26,-23.06 -3.03,-3.63 -8.26,-3.92 -10.13,-3.92 -0.05,0 -0.1,0.02 -0.14,0.04 -12.71,8.26 -24.12,13.53 -32.61,16.68 -11.02,4.08 -22.04,6.46 -32.68,6.46 -17.86,0 -26.98,-12.92 -23.18,-30.78 0.02,-0.08 0.04,-0.17 0.08,-0.36 1.44,-6.7 3.02,-14.02 4.73,-21.93 0.03,-0.15 0.17,-0.27 0.33,-0.27 l 53.48,0.07 c 16.22,0.02 29.4,-5.66 41.46,-16.59 20.57,-18.65 20.63,-46.7 20.66,-59.54 0.03,-12.92 0.06,-26.76 -9.62,-35.91 -7.37,-6.97 -17.24,-8.69 -30.53,-10.05 -0.81,-0.08 -21.67,-0.2 -29.01,-0.2 -50.54,0 -71.44,23.94 -80.18,65.74 l -4.56,21.66 -5.88,28.48 -5,23.04 c -0.41,2.44 -1.01,5.99 -1.41,8.43 m 133.16,-82.54 c -1.07,3.82 -2.62,6.82 -4.19,9.14 -11.95,17.69 -38.59,16.38 -41.94,16.17 -10.48,-0.42 -20.96,-0.83 -31.44,-1.25 1.93,-10.99 3.87,-21.97 5.8,-32.96 1.04,-3.09 2.79,-6.82 5.8,-10.36 10.45,-12.28 27.16,-11.81 29.95,-11.68 13.31,0.09 26.63,0.19 39.94,0.28 -1.31,10.22 -2.63,20.44 -3.94,30.66 z"
           id="path6"
           style="fill:#bac0c0;fill-opacity:1"
           inkscape:export-filename="..\iwiespace\src\assets\iwie-space-logo2.svg"
           inkscape:export-xdpi="96"
           inkscape:export-ydpi="96" />
      </g>
    </g>
  </g>
</svg>
